<?xml version="1.0" standalone="no"?>
<!DOCTYPE svg PUBLIC "-//W3C//DTD SVG 1.1//EN" "http://www.w3.org/Graphics/SVG/1.1/DTD/svg11.dtd" >
<svg xmlns="http://www.w3.org/2000/svg">
<metadata></metadata>
<defs>
<font id="modern_pictogramsnormal" horiz-adv-x="1122" >
<font-face units-per-em="2048" ascent="1536" descent="-512" />
<missing-glyph horiz-adv-x="614" />
<glyph horiz-adv-x="2048" />
<glyph horiz-adv-x="2048" />
<glyph unicode="&#xd;" horiz-adv-x="2048" />
<glyph unicode=" "  horiz-adv-x="614" />
<glyph unicode="&#x09;" horiz-adv-x="614" />
<glyph unicode="&#xa0;" horiz-adv-x="614" />
<glyph unicode="!" horiz-adv-x="1624" d="M61 147q0 39 21 74l604 1045q41 73 127 73q83 0 127 -73l604 -1045q19 -36 19 -74q0 -63 -43.5 -105t-104.5 -42h-1204q-61 0 -105.5 43t-44.5 104zM692 266q0 -51 35.5 -86t87.5 -35t87.5 35t35.5 86q0 53 -35.5 89t-87.5 36q-53 0 -88 -35.5t-35 -89.5zM705 506h219 v489h-219v-489z" />
<glyph unicode="&#x22;" horiz-adv-x="2465" />
<glyph unicode="#" horiz-adv-x="2119" d="M129 580q124 0 244 39t220 101.5t199.5 138t199 151.5t199.5 138.5t220 102t244 39.5q59 -128 169.5 -365t149.5 -321q-124 0 -241.5 -36.5t-215 -95.5t-193.5 -131t-194 -146.5t-198 -137.5t-225.5 -108t-257.5 -55q-53 115 -160 343.5t-160 342.5zM326 471 q35 -75 104.5 -223t104.5 -223q215 41 462 223q-58 22 -102.5 67t-71.5 103q-52 115 -32 274q-121 -88 -232 -144t-233 -77zM526 313q3 -16 13 -37q36 13 61 25q-4 12 -4 14q-23 -2 -70 -2zM537 365q48 -19 61 -25q4 4 8 16q-9 6 -26 20.5t-25 20.5q-12 -12 -18 -32z M573 231q19 -15 35 -18q21 52 23 57q-9 3 -15 9q-7 -8 -21.5 -24t-21.5 -24zM598 432q3 -6 7 -15.5t7 -15.5q-3 6 -7 15.5t-7 15.5q5 -10 14.5 -30.5t14.5 -30.5q2 1 16 6q-1 12 -4 33t-4 32q-14 -2 -37 -10zM655 268q0 -4 11 -65q24 4 34 10q-5 10 -14 29.5t-14 29.5 q-8 -4 -17 -4zM668 375q2 -1 7 -4t7 -4q6 9 19.5 27.5t19.5 27.5q-16 13 -31 16q-16 -40 -22 -63zM692 289q44 -33 53 -39q9 15 19 35q-40 10 -64 20q-1 -3 -2.5 -6l-3 -6t-2.5 -4zM698 346q4 -4 4 -16q37 6 64 14q-4 26 -8 37h-2q-24 -16 -58 -33v-2zM1104 934 q112 -39 174 -168q56 -123 33 -274q247 182 467 221q-38 80 -107.5 229.5t-101.5 216.5q-222 -42 -465 -225zM1327 899q13 -25 35.5 -76.5t34.5 -77.5q20 14 33 19q-27 62 -72 154q-19 -10 -31 -19zM1397 938q21 -41 71 -152q7 2 17.5 7.5t15.5 7.5q-25 54 -74 153 q-6 -3 -15 -8t-15 -8zM1468 971q20 -39 72 -150q16 5 33 13q-8 17 -33.5 69.5t-38.5 81.5q-1 -1 -33 -14z" />
<glyph unicode="$" horiz-adv-x="1316" d="M123 483q0 163 89 296.5t234 195.5l-133 293q0 41 45 41h600q46 0 46 -41l-134 -293q145 -63 234.5 -196t89.5 -296q0 -109 -42.5 -208.5t-114 -171t-170.5 -114t-208 -42.5q-146 0 -269.5 71.5t-195 195t-71.5 269.5zM348 240l10 -7q15 9 21 9q10 0 14 -4 q120 -60 225 -66v-31q0 -13 -5 -20.5t-21 -11.5v-15h129v15q-19 4 -26 11t-7 21v31q119 6 189.5 62t70.5 145q0 166 -243 188h-17v144q57 -3 115 -33q36 -20 47.5 -32t11.5 -30l12 -6l74 148l-10 8q-15 -12 -23 -12q-12 0 -20 6q-85 33 -125.5 45t-81.5 12v29q0 23 33 31v14 h-129v-14q26 -7 26 -31v-25q-118 -4 -183.5 -57t-65.5 -143t55 -129.5t194 -51.5v-157q-90 8 -140 38.5t-50 65.5l-12 6zM496 637q0 21 16 37q28 33 106 39v-140q-69 7 -95.5 18.5t-26.5 45.5zM688 279v149q77 -6 102 -16t25 -41q0 -75 -127 -92z" />
<glyph unicode="%" horiz-adv-x="1699" d="M184 555l201 203l322 -320l688 750l223 -203l-877 -983z" />
<glyph unicode="&#x26;" horiz-adv-x="1452" />
<glyph unicode="'" horiz-adv-x="1568" d="M164 362v515l362 364h514l365 -364v-515l-365 -362h-514zM219 385l330 -330h469l332 330v469l-332 332h-469l-330 -332v-469zM289 414v411l291 291h409l291 -291v-411l-291 -289h-409z" />
<glyph unicode="(" horiz-adv-x="1724" d="M57 964v17l11 16q115 -74 129 -82q13 -10 31.5 -15t50 8t57.5 53q21 31 26.5 59t-1.5 47t-15 30.5t-16 16.5l-129 84l10 16q5 3 15 7t39.5 11.5t59 10t69.5 -5.5t75 -29q0 -2 8 -7.5t19 -13t16 -11.5q94 -85 66 -218q-9 -43 0.5 -67t46.5 -64l170 -170l202 207l148 -151 l-195 -199l361 -324q38 -38 37 -92t-39 -94q-40 -38 -94.5 -38t-92.5 40l-329 348l-308 -370q-22 -23 -54.5 -23t-55.5 23l-80 82q-23 22 -23 54.5t23 55.5l352 328l-170 164q-42 41 -71 53t-62 2q-88 -31 -168 22q-36 23 -61 55.5t-36 63t-16.5 57.5t-5.5 43zM748 1221 q102 26 191.5 28t144.5 -10t106.5 -40.5t72 -46t45.5 -43.5q2 -2 3 -2.5t2 -2t2 -2.5q28 -28 67 -67.5t41 -41.5q12 -12 15 -67t24 -78q27 -27 62 -27q16 13 36 10.5t33 -16.5l23 -24q17 -17 17 -40t-17 -42l-111 -113q-17 -17 -40 -17t-42 17l-24 27q-14 12 -19 31t2 30 q15 8 9 33t-31 49q-35 36 -77.5 42.5t-59.5 -15.5l-43 -43l-152 149l25 25q6 6 18 20q21 25 20.5 47t-11.5 37l-11 16q-37 37 -83.5 63.5t-86.5 39t-74.5 19.5t-54.5 8h-20zM1146 98.5q0 -28.5 19 -47.5q22 -21 50 -22t49 20q20 19 20 48.5t-20 49.5t-48.5 20t-50.5 -20 q-19 -20 -19 -48.5z" />
<glyph unicode=")" horiz-adv-x="1206" d="M98 66l193 366l2 2q2 -17 16 -37q15 -22 64 -47q35 -12 61 -12q35 0 53 12q25 -20 33 -24q35 -21 78 -21q36 0 76 21q8 4 28 24q27 -12 58 -12q24 0 59 12q45 21 64 47q17 25 20 37q2 -2 8 -2h4l193 -366l-205 -17l-129 -151l-170 268l-170 -268l-137 153zM106 864 q0 35 13 51q3 5 17.5 8t36 4t38.5 1.5t38 -0.5h21h4l-4 2q-1 0 -20.5 7.5t-35.5 14t-35.5 15.5t-31 18t-12.5 16q-4 26 8 52q24 53 70 53q5 0 51.5 -26.5t50.5 -30.5l9 -2l-7 6l-15 13q-14 14 -25.5 26t-26 27.5t-22 28.5t-5.5 19q2 17 27 45q30 27 59 27q8 0 44.5 -37.5 t54.5 -58.5l8 -6l-4 8q-60 121 -45 143q14 17 41 29q21 8 41 8q19 0 43.5 -49t37.5 -86l2 -4v4v15t-0.5 23.5t0 27.5t1.5 29.5t2.5 26t4.5 21t7 10.5q19 13 51 13q30 0 49 -13q4 -2 7 -10.5t4.5 -21t2.5 -26t1.5 -29.5t0 -27.5t-0.5 -23.5v-15v-4v4q2 4 13.5 30t21.5 47 t23.5 39.5t22.5 18.5q22 0 41 -8q28 -11 43 -29q13 -22 -47 -143v-8l2 6q16 19 54.5 57.5t46.5 38.5q31 0 61 -27q21 -24 27 -45q2 -6 -6 -19t-22.5 -28t-28 -28t-27 -25t-15.5 -14l-2 -6l7 2q4 4 51 30.5t55 26.5q47 0 66 -53q14 -31 8 -52q-1 -7 -12 -16t-30.5 -18 t-34.5 -15.5t-36 -13.5l-20 -8l-4 -2h4q1 0 22.5 0.5t38.5 0t38.5 -1.5t35 -4t16.5 -8q12 -18 12 -51q0 -31 -12 -49q-3 -6 -16.5 -10t-35 -5.5t-38.5 -1.5t-38 0.5t-23 0.5h-4h4q3 -1 40.5 -16t64.5 -29.5t28 -24.5q5 -20 -8 -53q-20 -55 -66 -55q-8 0 -55 26.5t-51 30.5 l-7 2l2 -2q1 -1 15 -14t27.5 -26t28 -28.5t22.5 -28t6 -18.5q-6 -24 -27 -45q-31 -31 -61 -31q-5 0 -27 21.5t-47 49.5t-27 30l-2 2v-6q15 -30 35 -81t12 -61q-19 -23 -43 -30q-26 -11 -41 -11q-12 0 -29 28.5t-33.5 66t-18.5 41.5v4v-4v-14t0.5 -23t0 -27t-1.5 -29.5 t-2.5 -26t-4.5 -20.5t-7 -10q-17 -14 -49 -14q-34 0 -51 14q-4 2 -7 10t-4.5 20.5t-2.5 26t-1.5 29.5t0 27t0.5 23v14v4l-2 -4q-54 -136 -81 -136q-12 0 -41 11q-22 7 -41 30q-9 10 10 60.5t35 81.5l4 6l-8 -2q-2 -2 -26.5 -29.5t-46 -49.5t-26.5 -22q-28 0 -59 31 q-24 24 -27 45q-5 16 94 115l7 2l-9 -2q-4 -4 -50.5 -30.5t-51.5 -26.5q-46 0 -70 55q-11 28 -8 53q1 10 29 24.5t65.5 29t40.5 16.5h4h-4q-1 0 -21.5 -0.5t-37.5 -0.5t-38.5 1.5t-36 5.5t-17.5 10q-13 16 -13 49zM276 864q0 -130 95 -223.5t227 -93.5q130 0 222.5 93 t92.5 224q0 132 -92.5 226t-222.5 94q-132 0 -227 -94t-95 -226zM350 864q0 -101 72.5 -172t175.5 -71q101 0 171.5 71t70.5 172q0 103 -70.5 174.5t-171.5 71.5q-103 0 -175.5 -71.5t-72.5 -174.5z" />
<glyph unicode="*" horiz-adv-x="1617" d="M123 774h524l162 496l162 -496h524l-424 -307l162 -500l-424 307l-426 -307l164 500z" />
<glyph unicode="+" horiz-adv-x="1329" d="M164 379v283h375v358h292v-358h375v-283h-375v-379h-292v379h-375z" />
<glyph unicode="," horiz-adv-x="1116" d="M123 902v22q0 183 128 310.5t312 127.5t314.5 -128t130.5 -310q0 -35 -6.5 -71t-22.5 -74.5t-28.5 -66.5t-39 -70.5t-38.5 -61t-43.5 -63t-38.5 -54.5q-52 -74 -92.5 -151.5t-61.5 -135t-35 -105t-18 -71.5l-4 -25q-2 -9 -7 -12t-10.5 0t-7.5 12q-1 9 -4.5 25.5 t-19.5 69.5t-37.5 107.5t-62.5 133t-91 152.5q-122 170 -151 220q-61 107 -66 219zM401 915q0 -71 49.5 -122.5t116.5 -51.5q71 0 120.5 51.5t49.5 122.5t-49 119.5t-121 48.5q-68 0 -117 -49t-49 -119z" />
<glyph unicode="-" d="M113 123l440 774l444 -774h-884z" />
<glyph unicode="." horiz-adv-x="1566" d="M57 1122q0 31 16 48.5t32 19.5l16 2h5q4 1 11.5 1.5t14.5 0.5q54 0 101.5 -14t92.5 -53t66 -101l886 -63q34 -2 57 -25t23 -57v-461q0 -35 -24.5 -59.5t-59.5 -24.5h-782q-29 0 -52 20.5t-28 49.5l-145 520q-3 11 -8 26.5t-23 45t-37 34.5q-18 5 -52.5 6.5t-55 4 t-37.5 22t-17 57.5zM371 102q0 -57 40 -97t97 -40t97 40t40 97t-40 97.5t-97 40.5t-97 -40.5t-40 -97.5zM446 874l62 -186h201v170zM524 641l49 -158h136v158h-185zM774 483h205v158h-205v-158zM774 688h205v152l-205 14v-166zM1036 102q0 -57 39.5 -97t95.5 -40 q57 0 97.5 40t40.5 97q-2 57 -41.5 97.5t-96.5 40.5q-56 0 -95.5 -40.5t-39.5 -97.5zM1044 483h187v158h-187v-158zM1044 688h187v133l-187 15v-148z" />
<glyph unicode="/" d="M111 856h884l-440 -774z" />
<glyph unicode="0" horiz-adv-x="1163" d="M205 283v469h370l383 383v-1235l-383 383h-370z" />
<glyph unicode="1" horiz-adv-x="1501" d="M205 283v469h370l383 383v-1235l-383 383h-370zM1069 252q55 55 84 127t29 147q0 152 -105 260l101 101q76 -77 117.5 -174t41.5 -199q0 -209 -161 -367z" />
<glyph unicode="2" horiz-adv-x="1818" d="M205 283v469h370l383 383v-1235l-383 383h-370zM1069 252q55 55 84 127t29 147q0 152 -105 260l101 101q76 -77 117.5 -174t41.5 -199q0 -209 -161 -367zM1298 47q94 92 142.5 215t48.5 256q0 132 -49 256t-142 217l109 109q119 -119 183.5 -273.5t64.5 -318.5 q0 -157 -60.5 -305t-181.5 -269z" />
<glyph unicode="3" horiz-adv-x="1998" d="M205 0v1219h1589v-1219h-1589zM315 111h260v258h-260v-258zM315 479h260v260h-260v-260zM315 850h260v258h-260v-258zM686 111h258v258h-258v-258zM686 479h258v260h-258v-260zM686 850h258v258h-258v-258zM1055 111h260v258h-260v-258zM1055 479h260v260h-260v-260z M1055 850h260v258h-260v-258zM1425 111h258v258h-258v-258zM1425 479h258v260h-258v-260zM1425 850h258v258h-258v-258z" />
<glyph unicode="4" horiz-adv-x="1722" d="M205 104v263h262v-263h-262zM205 477v266h262v-266h-262zM205 856v264h262v-264h-262zM643 166v133h875v-133h-875zM643 522v133h875v-133h-875zM643 899v133h875v-133h-875z" />
<glyph unicode="5" horiz-adv-x="1665" d="M205 915v304h344v-304h-344zM246 74v112h262v-112h-262zM246 360v113h262v-113h-262zM246 647v113h262v-113h-262zM659 915v304h345v-304h-345zM700 74v112h263v-112h-263zM700 360v113h263v-113h-263zM700 647v113h263v-113h-263zM1116 915v304h344v-304h-344zM1157 74 v112h262v-112h-262zM1157 360v113h262v-113h-262zM1157 647v113h262v-113h-262z" />
<glyph unicode="6" horiz-adv-x="1802" d="M125.5 258.5q-6.5 57.5 30.5 101.5l393 488q32 40 83 49.5t95 -16.5l375 -219l332 409q36 43 92.5 49t101.5 -30q44 -35 50 -93t-29 -102l-406 -500q-32 -38 -83 -47t-95 17l-375 217l-319 -396q-42 -51 -109 -51q-47 0 -86 31q-44 35 -50.5 92.5z" />
<glyph unicode="7" horiz-adv-x="1523" d="M205 0v881h295v-881h-295zM614 0v655h295v-655h-295zM1024 0v1219h295v-1219h-295z" />
<glyph unicode="8" horiz-adv-x="1503" d="M123 518q0 148 72.5 273.5t197.5 198.5t273 73v-551h544v6q0 -148 -72.5 -273t-198 -197.5t-273.5 -72.5t-273 72.5t-197.5 197.5t-72.5 273zM838 684v549q148 0 273 -72.5t197 -197.5t72 -273v-6h-542z" />
<glyph unicode="9" horiz-adv-x="1378" d="M131 154q0 33 25 61q55 112 92 218.5t53.5 180t30 138t32 118t48.5 95.5q38 53 84.5 84.5t113.5 46.5q3 40 32.5 67t70.5 27q40 0 69.5 -27t32.5 -67q124 -27 199 -131q30 -42 48.5 -95.5t32 -118t30 -138t53.5 -180t92 -218.5q26 -29 26 -61q0 -51 -60 -92.5t-151 -66 t-188.5 -37.5t-183.5 -13t-183 13t-188.5 37.5t-151 66t-59.5 92.5zM250 195q57 -68 187.5 -96.5t275.5 -26.5q362 0 463 123q-101 120 -463 120t-463 -120zM621 244q0 14 92 14t92 -14q0 -43 -27 -73t-65 -30t-65 30t-27 73z" />
<glyph unicode=":" horiz-adv-x="493" d="M82 150q0 66 46.5 112.5t113.5 46.5q66 0 112.5 -46.5t46.5 -112.5q0 -67 -46.5 -113.5t-112.5 -46.5q-68 0 -114 46t-46 114zM82 725q0 66 46.5 113t113.5 47q66 0 112.5 -47t46.5 -113q0 -67 -46.5 -113.5t-112.5 -46.5q-68 0 -114 46.5t-46 113.5z" />
<glyph unicode=";" horiz-adv-x="495" d="M82 -150v-18q78 -3 142.5 19.5t105 61t62.5 87t22 100.5q0 80 -46 132.5t-118 52.5q-60 0 -99.5 -40t-39.5 -100q0 -48 28.5 -83.5t77.5 -45.5q-9 -58 -41.5 -97t-93.5 -69zM82 725q0 66 46.5 113t113.5 47q66 0 112.5 -47t46.5 -113q0 -67 -46.5 -113.5t-112.5 -46.5 q-68 0 -114 46.5t-46 113.5z" />
<glyph unicode="&#x3c;" d="M82 498l836 424v-844z" />
<glyph unicode="=" horiz-adv-x="1576" d="M123 618q0 136 52.5 259.5t141.5 212.5t212 141.5t259 52.5q181 0 334 -89t242.5 -242.5t89.5 -334.5q0 -180 -89.5 -333.5t-242.5 -242.5t-334 -89q-136 0 -259 52.5t-212 142t-141.5 212.5t-52.5 258zM674 963q0 -50 34 -84.5t83 -34.5q50 0 83 34t33 85q0 48 -33.5 81 t-82.5 33t-83 -33.5t-34 -80.5zM692 172h199v571h-199v-571z" />
<glyph unicode="&#x3e;" d="M205 78v844l835 -420z" />
<glyph unicode="?" horiz-adv-x="1576" d="M123 618q0 136 52.5 259.5t141.5 212.5t212 141.5t259 52.5q181 0 334 -89t242.5 -242.5t89.5 -334.5q0 -180 -89.5 -333.5t-242.5 -242.5t-334 -89q-136 0 -259 52.5t-212 142t-141.5 212.5t-52.5 258zM524 791h213q0 94 47 94q45 0 45 -94q0 -59 -27.5 -84t-86.5 -25 q-19 0 -33 2v-201h213v84q158 41 158 224q0 118 -75.5 192t-191.5 74q-129 0 -195.5 -68.5t-66.5 -197.5zM664 266q0 -51 36.5 -89t87.5 -38t88 38t37 89t-37 89t-88 38t-87.5 -37.5t-36.5 -89.5z" />
<glyph unicode="@" horiz-adv-x="1513" d="M129 621q0 297 190 481q93 90 218 137q125 51 276 51q140 0 260.5 -45t204.5 -129q75 -72 113 -168q41 -103 41 -227q0 -168 -76 -297q-96 -152 -266 -152q-71 0 -115 35q-35 24 -49 60q-33 -42 -82.5 -66.5t-104.5 -24.5q-132 0 -200 95q-68 86 -68 231q0 150 80 242 q84 104 231 104q87 0 148 -61l12 43h139l-28 -424q-3 -55 14 -72q9 -12 33 -12q44 0 78.5 32.5t53 81t27.5 96.5t9 89q0 178 -111 289q-122 125 -342 125q-210 0 -350 -125q-166 -150 -166 -402q0 -105 36.5 -199t102.5 -163q133 -133 336 -133q224 0 395 75l25 13v-158 l-10 -4q-168 -82 -412 -82q-268 0 -440 158q-99 90 -151 220.5t-52 285.5zM643 602q0 -25 4 -50.5t15 -55.5t37 -49t63 -19q74 0 112 66q29 52 29 139q0 74 -26 121q-33 47 -99 47q-70 0 -104 -64q-31 -54 -31 -135z" />
<glyph unicode="A" horiz-adv-x="1902" d="M205 0v1038h233v99h148v-99h1112v-1038h-1493zM281 651h409q46 59 115 93t147 34q77 0 145.5 -34t114.5 -93h410v312h-1341v-312zM674 444q0 -116 81 -197t197 -81q114 0 195.5 81.5t81.5 196.5t-81.5 197t-195.5 82q-115 0 -196.5 -81.5t-81.5 -197.5zM791 444 q0 -66 47.5 -112.5t113.5 -46.5t113 46.5t47 112.5t-47 113t-113 47t-113.5 -47t-47.5 -113z" />
<glyph unicode="B" horiz-adv-x="1449" d="M205 168v952q0 51 36 87t87 36h762v-944h-668q-65 0 -104 -33.5t-39 -93.5v-4q0 -61 39.5 -98t103.5 -37h766v1026h57v-1100h-823q-92 0 -154.5 58.5t-62.5 150.5zM395 170q0 -14 10.5 -22.5t24.5 -8.5h660v58h-660q-14 0 -24.5 -7.5t-10.5 -19.5z" />
<glyph unicode="C" horiz-adv-x="1570" d="M123 621q0 134 52.5 256.5t141 211t211 141t256.5 52.5q180 0 333 -88.5t242 -240.5t89 -332t-89 -332.5t-241.5 -241t-333.5 -88.5q-180 0 -332 88.5t-240.5 241t-88.5 332.5zM303 252q10 -14 53 -62q53 -53 131 -98l150 283q65 -41 149 -41q121 0 204 83.5t83 203.5 q0 117 -80 200l271 172q-21 31 -50 56q-57 57 -133 102l-149 -283q-64 39 -146 39q-120 0 -203 -83t-83 -203q0 -116 75 -197zM664 621q0 52 35.5 88t86.5 36q53 0 89 -36t36 -88q0 -50 -36.5 -86.5t-88.5 -36.5q-49 0 -85.5 36.5t-36.5 86.5zM725 621q0 -28 16.5 -45 t44.5 -17t46 17t18 45t-18 45.5t-46 17.5t-44.5 -17.5t-16.5 -45.5z" />
<glyph unicode="D" horiz-adv-x="1431" d="M205 0v1245h686l336 -344v-901h-1022zM352 147h727v705h-264v246h-463v-951zM438 565l279 -323l276 321h-192v172h-174l4 -170h-193z" />
<glyph unicode="E" horiz-adv-x="1843" d="M123 516q7 12 19.5 32t55.5 77.5t89.5 110.5t119.5 117t148 110.5t172.5 78t194.5 31.5t194 -30.5t173.5 -80t146.5 -109t120.5 -118.5t88.5 -108.5t57 -80.5l18 -30q-7 -12 -19.5 -32t-55 -77.5t-89.5 -110t-119.5 -116.5t-147.5 -110t-172.5 -77.5t-194.5 -31.5 t-194 30.5t-173.5 79.5t-146.5 108t-121 118.5t-88.5 108.5t-56.5 80zM530 516q0 -161 115.5 -276t276.5 -115t276 115t115 276t-115 276t-276 115t-276.5 -115t-115.5 -276zM748 516q0 -72 51 -123t123 -51q71 0 123.5 51.5t52.5 122.5q0 70 -53 123t-123 53 q-71 0 -122.5 -52.5t-51.5 -123.5z" />
<glyph unicode="F" horiz-adv-x="950" d="M164 569v260h149v191q0 118 66 180t194 62h213v-240h-114q-60 0 -79.5 -29t-19.5 -80v-84h213l-20 -260h-193v-569h-260v569h-149z" />
<glyph unicode="G" horiz-adv-x="1654" d="M205 129v985q0 129 129 129h985q69 0 100 -30.5t31 -98.5v-985q0 -65 -31.5 -97t-99.5 -32h-338v406h160v194h-160v129q0 36 14.5 57t59.5 21h86v182h-183q-96 0 -146 -47t-50 -135v-207h-131v-194h131v-406h-428q-129 0 -129 129z" />
<glyph unicode="H" horiz-adv-x="1896" d="M164 723v276q0 46 46 89.5t113 73t131.5 48.5t112.5 25q40 5 107 8q56 2 114 2q12 -1 23 -1q70 0 131 -1t106 -3l46 -1q56 0 94.5 -38.5t38.5 -92.5v-111h235v-276h-235v-107q0 -57 -38 -95t-95 -38l-48 -1q-47 -2 -111 -3q-63 -1 -135 -1q-14 0 -29 -1q-56 0 -108 2 q-65 2 -98 6q-39 5 -101 24t-131.5 49t-119 75t-49.5 92zM412 795q0 -50 34.5 -84.5t83.5 -34.5q50 0 84.5 35t34.5 84t-34.5 83.5t-84.5 34.5t-84 -34.5t-34 -83.5zM778 393l90 -330q16 -63 68 -63h242l-113 393h-287zM1536 721v278l197 144v-568z" />
<glyph unicode="I" horiz-adv-x="1619" d="M143 1202q0 31 21.5 52.5t52.5 21.5h1186q30 0 52 -22t22 -52t-22 -52t-52 -22h-10l-222 -1126h-716l-219 1126h-19q-31 0 -52.5 21.5t-21.5 52.5zM348 1128l12 -65l66 65h-78zM377 977l29 -139l43 -43l126 127l-126 125zM436 678l41 -211l98 98l-126 125zM500 385 l127 -125l127 125l-127 127zM500 743l127 -127l127 127l-127 125zM500 1100l127 -127l127 127l-31 28h-193zM518 264l29 -151h123zM680 207l94 -94h62l96 94l-127 127zM680 565l125 -127l127 127l-127 125zM680 922l125 -127l127 127l-127 125zM858 385l125 -125l127 125 l-127 127zM858 743l125 -127l127 127l-127 125zM858 1100l125 -127l127 127l-31 28h-192zM940 113h139l35 172zM1036 565l111 -112l41 211l-27 26zM1036 922l125 -127l66 63l20 105l-86 84zM1184 1128l80 -77l16 77h-96z" />
<glyph unicode="J" horiz-adv-x="1536" d="M141 228q-3 10 -3 20q0 17 9 33l398 688l323 202l156 -88q4 12 14 60q0 1 4.5 22t6.5 27.5t7.5 27.5t10.5 31.5t14 30.5t19.5 34.5t24 32.5t31 34t38.5 32q32 27 78 29h5q44 0 85 -23q49 -21 82 -65q30 -46 33 -94q-4 -85 -107 -134q-73 -33 -178 -45q-85 -11 -115 -30 l152 -88l-17 -381l-397 -688q-13 -25 -40 -33q-10 -3 -19 -3q-16 0 -31 9l-551 319q-25 13 -33 40zM786 822q16 -58 68 -89q34 -20 72 -20q19 0 39 5q59 16 88 68q20 34 20 71q0 8 -1 17q-6 45 -36 80l-69 43q-21 7 -42 7q-25 0 -51 -10q-47 -18 -73 -62q-20 -34 -20 -71 q0 -19 5 -39zM1063 1085q17 12 40 18.5t36.5 8t48.5 4.5q104 13 168 43q85 37 88 103q0 35 -23.5 68.5t-62.5 55.5q-4 4 -10 7q-38 19 -70 19q-36 0 -66 -23q-41 -31 -68.5 -65.5t-42 -71.5t-20 -58.5t-10.5 -54.5q0 -9 -4 -25q-1 -3 -1.5 -12.5t-2.5 -16.5z" />
<glyph unicode="K" horiz-adv-x="1431" d="M205 0v1245h686l336 -344v-901h-1022zM352 147h727v705h-264v246h-463v-951zM453 301h520v57h-520v-57zM453 465h520v57h-520v-57zM453 629h520v57h-520v-57z" />
<glyph unicode="L" horiz-adv-x="1636" d="M164 686v6q0 38 12 66q13 30 33 49q-16 37 -16 70q-1 19 5 37q14 49 56 79q-12 38 -12 70q0 114 158 141q50 8 108 8q128 0 299 -40q153 -36 191 -66q2 -1 3 -2v94q0 20 14.5 34.5t33.5 14.5h333q20 0 35 -14.5t15 -34.5v-788q0 -19 -15 -33.5t-35 -14.5h-333 q-19 0 -33.5 14.5t-14.5 33.5v53q-45 -29 -87 -78t-68.5 -96.5t-47.5 -95.5t-30 -74t-10 -33q-43 -168 -176 -168q-76 0 -137.5 73.5t-61.5 207.5q0 38 12.5 87.5t34.5 88.5h-31q-48 0 -89.5 11.5t-77.5 38.5t-48 71q-5 21 -5 47q0 29 7 63q-21 38 -22 80zM306 684 q20 -32 69 -33q11 -1 15.5 -7t0 -11.5t-15.5 -5.5q-55 0 -68 -40q-3 -10 -3 -20q0 -26 23 -49q28 -26 72 -26h123q30 0 46 -16t16 -38q0 -20 -42 -106t-42 -131q0 -72 27 -119t55 -47q25 0 40.5 17.5t18.5 45.5q12 81 68 186t136.5 195t155.5 123v371q-227 113 -503 119h-14 q-72 0 -111 -37q-20 -19 -20 -38q0 -13 10 -26q19 -24 69 -35q23 -3 23 -16q-1 -13 -19 -14q-86 0 -112 -43q-7 -12 -7 -24q0 -18 18 -35q20 -16 54 -21q13 -1 18 -7t0 -12t-18 -6q-55 0 -79 -31q-13 -17 -13 -34q0 -15 9 -29z" />
<glyph unicode="M" horiz-adv-x="1228" d="M205 123v1108q0 51 36 87t87 36h573q51 0 87 -36t36 -87v-1108q0 -51 -36 -87t-87 -36h-573q-51 0 -87 36t-36 87zM332 813h565v397h-565v-397zM354 420q0 -107 77 -183.5t183 -76.5q107 0 183.5 76.5t76.5 183.5t-76.5 183.5t-183.5 76.5q-106 0 -183 -76.5t-77 -183.5z M516 420q0 41 28.5 69.5t69.5 28.5t70 -28.5t29 -69.5t-29 -69.5t-70 -28.5t-69.5 28.5t-28.5 69.5z" />
<glyph unicode="N" horiz-adv-x="1124" d="M205 129v1124q0 17 13 30t30 13h626q20 0 33 -12.5t13 -30.5v-1124q0 -54 -39 -92.5t-93 -38.5h-452q-54 0 -92.5 38.5t-38.5 92.5zM305 223q0 -38 25 -64t63 -26h64v90h-152zM305 262h152v86h-152v-86zM305 387h152v86h-152v-86zM305 512h152v86h-152v-86zM305 688h514 v399h-514v-399zM483 1182q0 -12 7.5 -20.5t19.5 -8.5h104q10 0 17.5 8.5t7.5 20.5q0 11 -7.5 18.5t-17.5 7.5h-104q-12 0 -19.5 -7.5t-7.5 -18.5zM489 133h146v90h-146v-90zM489 262h146v86h-146v-86zM489 387h146v86h-146v-86zM489 512h146v86h-146v-86zM670 133h59 q41 0 65.5 25.5t24.5 64.5h-149v-90zM670 262h149v86h-149v-86zM670 387h149v86h-149v-86zM670 512h149v86h-149v-86z" />
<glyph unicode="O" horiz-adv-x="1187" d="M205 123v1098q0 59 38 96t99 37h504q61 0 99 -37t38 -96v-1098q0 -51 -36 -87t-87 -36h-532q-51 0 -87 36t-36 87zM279 270h630v813h-630v-813zM467 1239q0 -11 7.5 -19t17.5 -8h204q10 0 17.5 8t7.5 19t-7.5 19t-17.5 8h-204q-10 0 -17.5 -8t-7.5 -19zM516 131 q0 -31 22.5 -54.5t55.5 -23.5t55.5 23.5t22.5 54.5q0 34 -22 56t-56 22t-56 -22t-22 -56z" />
<glyph unicode="P" horiz-adv-x="1798" d="M205 129v821q0 68 33 101q29 29 80 29q8 0 16 -1h1128q69 0 100 -30.5t31 -98.5v-821q0 -65 -31.5 -97t-99.5 -32h-1128q-129 0 -129 129zM631 227l618 312l-618 311v-623z" />
<glyph unicode="Q" horiz-adv-x="1574" d="M205 164v1106q0 68 47.5 116t114.5 48h841q67 0 114.5 -48t47.5 -116v-1106q0 -68 -47.5 -116t-114.5 -48h-841q-67 0 -114.5 48t-47.5 116zM401 254h773v983h-773v-983zM711 131q0 -32 22 -55t55 -23t55.5 23.5t22.5 54.5q0 34 -22 56t-56 22t-55.5 -22t-21.5 -56z" />
<glyph unicode="R" horiz-adv-x="1288" d="M123 494q0 212 153 368q74 73 168.5 112.5t196.5 39.5l-66 282l541 -372l-520 -396l47 301q-140 -2 -238 -99.5t-98 -235.5q0 -140 99.5 -239t238.5 -99t237.5 99t98.5 239h184q0 -105 -39 -200.5t-112 -168.5q-73 -75 -168.5 -114.5t-200.5 -39.5t-200.5 39.5 t-168.5 114.5q-74 74 -113.5 169.5t-39.5 199.5z" />
<glyph unicode="S" horiz-adv-x="1673" d="M184 346q0 29 19.5 50t48.5 24v678q-29 1 -48.5 22t-19.5 49q0 31 21.5 52.5t52.5 21.5h535l30 80h19l30 -80h543q31 0 52.5 -21.5t21.5 -52.5t-21.5 -52t-52.5 -21v-676q31 0 52.5 -21.5t21.5 -52.5t-21.5 -52.5t-52.5 -21.5h-536v-94l272 -166l-25 -43l-247 94v-188 q0 -22 -15 -37.5t-37 -15.5q-23 0 -36 15t-13 38v188l-246 -94l-24 43l270 166v94h-520q-31 0 -52.5 21.5t-21.5 52.5zM346 426h975v664h-975v-664z" />
<glyph unicode="T" horiz-adv-x="1077" d="M188 469v571q0 54 38 91.5t93 37.5q54 0 92 -37.5t38 -91.5v-190h333q56 0 93.5 -38t37.5 -93q0 -54 -38 -91.5t-93 -37.5h-333v-121q0 -86 60.5 -144.5t154.5 -64.5h118q55 0 93 -37.5t38 -91.5q0 -55 -37.5 -93t-93.5 -38h-127h-2q-195 9 -325 139q-67 63 -103.5 149 t-36.5 181z" />
<glyph unicode="U" horiz-adv-x="1654" d="M205 129v985q0 129 129 129h985q69 0 100 -30.5t31 -98.5v-985q0 -65 -31.5 -97t-99.5 -32h-985q-129 0 -129 129zM559 557q0 -159 100 -246q98 -98 242 -104h139q40 0 68.5 28.5t28.5 69.5q0 40 -28.5 68t-68.5 28h-133q-69 5 -113 47.5t-44 108.5v86h290q40 0 68.5 28 t28.5 68q0 41 -28.5 70t-68.5 29h-290v120q0 39 -29 69t-66 30q-41 0 -68.5 -29.5t-27.5 -69.5v-401z" />
<glyph unicode="V" horiz-adv-x="1792" d="M162 0v1245h887l-123 -127h-617v-971h727v428l148 166v-741h-1022zM502 369l67 258l609 624q0 3 49.5 17t72.5 20l3 2l108 -112q-3 0 -12 -31t-17 -61l-8 -31l-608 -629l-260 -59zM588 524l76 -73l63 14l37 37l8 57l-74 76l-57 -10l-37 -35zM1241 1319l92 92 q43 43 102.5 43t100.5 -41t41 -96q0 -60 -45 -107l-94 -92l28 123l-104 105z" />
<glyph unicode="W" horiz-adv-x="1826" d="M205 489v648q0 44 32 76t76 32h799q44 0 75.5 -32t31.5 -76v-119h-166v72h-682v-551h94v-156h-152q-44 0 -76 31.5t-32 74.5zM608 106v662q0 43 32 74.5t75 31.5h801q44 0 75 -31.5t31 -74.5v-662q0 -43 -31 -74.5t-75 -31.5h-801q-43 0 -75 31.5t-32 74.5zM772 154h686 v567h-686v-567z" />
<glyph unicode="X" horiz-adv-x="1333" d="M166 221l299 299l-297 293l199 203l297 -297l297 297l200 -203l-297 -293l299 -301l-202 -199l-297 299l-297 -299z" />
<glyph unicode="Y" horiz-adv-x="2172" d="M123 623q0 34 14.5 66.5t35.5 54.5t42.5 38.5t36.5 24.5l14 8h545q90 0 173 25.5t147.5 70t111.5 89.5t88 98q0 23 16.5 39t41.5 16t42 -16t17 -39v-946q0 -23 -17 -39.5t-42 -16.5t-41.5 16.5t-16.5 39.5q-218 270 -520 270h-104l229 -387l-139 -101q-15 -6 -29 -6 q-12 0 -22 4q-24 10 -41 31l-285 459h-154q-6 3 -15.5 9t-34 26t-43.5 42t-34.5 56t-15.5 68zM301 565q0 -10 9 -19t20 -9h164q10 0 18 8.5t8 19.5t-8 19t-18 8h-164q-11 0 -20 -8.5t-9 -18.5zM301 684q0 -10 9.5 -19.5t19.5 -9.5h164q10 0 18 9t8 20t-8 19t-18 8h-164 q-11 0 -20 -8.5t-9 -18.5zM838 514q276 0 475 -199v617q-195 -207 -475 -207v-211zM1597 307l56 55l225 -225l-55 -53zM1597 930l226 223l55 -53l-225 -226zM1694 588v78h377v-78h-377z" />
<glyph unicode="Z" horiz-adv-x="1533" d="M205 0v133h842v-133h-842zM205 295v133h1141v-133h-1141zM205 590v133h842v-133h-842zM205 885v133h1141v-133h-1141z" />
<glyph unicode="[" horiz-adv-x="1175" d="M82 467h348l-4 551h319v-555h349l-504 -502z" />
<glyph unicode="\" horiz-adv-x="1800" d="M205 2v262h262v-262h-262zM205 375v266h262v-266h-262zM205 754v264h262v-264h-262zM582 2v262h264v-262h-264zM582 375v266h264v-266h-264zM582 754v264h264v-264h-264zM956 2v262h265v-262h-265zM956 377v266h265v-266h-265zM956 754v264h265v-264h-265zM1333 2v266 h262v-266h-262zM1333 377v266h262v-266h-262zM1333 754v264h262v-264h-262z" />
<glyph unicode="]" horiz-adv-x="1175" d="M82 555l504 502l508 -506h-349l5 -551h-320v555h-348z" />
<glyph unicode="^" horiz-adv-x="1458" d="M205 139q0 62 44 106t105 44q62 0 107 -44.5t45 -105.5q0 -62 -45 -105.5t-107 -43.5t-105.5 43t-43.5 106zM213 528v195q114 0 220.5 -31t197 -93t158.5 -147.5t106.5 -202t38.5 -249.5h-205q0 141 -68.5 262.5t-187.5 193.5t-260 72zM213 920v210q150 0 295 -37.5 t271.5 -106t233.5 -170.5t183 -225t119 -275t43 -316h-223q0 145 -48 284t-135 253t-200.5 200.5t-253.5 134.5t-285 48z" />
<glyph unicode="_" horiz-adv-x="2560" d="M205 -2v1032h2150v-1032h-2150zM537 164h309v112h-309v-112zM537 451h309v110h-309v-110zM537 737h309v109h-309v-109zM1716 164h309v112h-309v-112zM1716 451h309v110h-309v-110zM1716 735h309v111h-309v-111z" />
<glyph unicode="`" horiz-adv-x="1562" d="M82 1309q3 192 137 323l64 -65q-109 -106 -109 -264q0 -156 109 -265l-62 -63q-136 136 -139 334zM240 57l454 1170l70 47h27l67 -47l455 -1170q11 -30 -1.5 -58t-41.5 -38q-8 -4 -27 -4q-23 0 -41.5 12.5t-25.5 34.5l-23 57h-373h-381l-22 -57q-7 -22 -26 -34.5 t-42 -12.5q-18 0 -26 4q-29 10 -41.5 38t-1.5 58zM346 1305q0 118 94 208l60 -61q-66 -63 -66 -154q0 -85 60 -145l-58 -57q-42 42 -66 97.5t-24 111.5zM428 135h279l-201 199zM535 410l67 -66l127 125l-123 123zM641 659l139 -137l140 137h-279zM653 291l127 -127l127 127 l-127 127zM662 733h229l-115 297zM682 1370q0 38 28 66t66 28q39 0 66.5 -27.5t27.5 -66.5t-27.5 -66.5t-66.5 -27.5q-38 0 -66 28t-28 66zM831 469l127 -125l62 59l-72 183zM854 135h270l-75 195zM1063 1149q65 62 65 156q0 83 -59 145l57 57q91 -101 91 -211 q0 -116 -93 -206zM1280 1034q109 106 106 264q3 158 -106 267l61 59q67 -66 102.5 -152.5t37.5 -179.5q-3 -192 -138 -321z" />
<glyph unicode="a" horiz-adv-x="1980" d="M205 260v756h217v201h1354v-1035q0 -72 -53 -127t-119 -55h-1176q-111 0 -167 62.5t-56 197.5zM315 260q0 -68 14.5 -103.5t37.5 -35.5q55 0 55 139v645h-107v-645zM502 111h1102q26 0 43.5 23.5t17.5 47.5v924h-1133v-846q0 -87 -30 -149zM709 250v37h260v-37h-260z M709 367v36h260v-36h-260zM709 479v37h260v-37h-260zM709 596v37h260v-37h-260zM709 717v37h260v-37h-260zM748 872v72h682v-72h-682zM1071 338v416h436v-416h-436z" />
<glyph unicode="b" horiz-adv-x="1681" d="M205 446v631q1 73 35 107t100 33h4h995q71 0 104.5 -34t33.5 -106v-635q0 -133 -138 -133h-448l-496 -399l103 399h-154q-71 0 -105 33.5t-34 103.5zM467 567h747v135h-747v-135zM467 823h747v135h-747v-135z" />
<glyph unicode="c" horiz-adv-x="1730" d="M61 1022v180q0 44 32.5 76.5t76.5 32.5h365v8q0 33 23.5 56.5t57.5 23.5h19q33 0 56.5 -23.5t23.5 -56.5v-8h303v8q0 32 23 56t55 24h20q33 0 56.5 -23.5t23.5 -56.5v-8h365q44 0 76 -32.5t32 -76.5v-180q0 -44 -32 -76.5t-76 -32.5h-164v-800q0 -57 -27.5 -85t-87.5 -28 h-833q-115 0 -115 113v800h-164q-44 0 -76.5 32.5t-32.5 76.5zM594 201q0 -30 22 -51t54 -21q29 0 50 21.5t21 50.5q0 31 -21 52t-50 21q-32 0 -54 -21t-22 -52zM594 389q0 -31 22 -52.5t54 -21.5q29 0 50 21.5t21 52.5q0 29 -21 50.5t-50 21.5q-32 0 -54 -21t-22 -51z M594 578q0 -32 22 -53t54 -21q30 0 50.5 21t20.5 53q0 29 -21 50t-50 21q-32 0 -54 -21t-22 -50zM594 764q0 -30 22 -51t54 -21q29 0 50 21.5t21 50.5q0 31 -21 52.5t-50 21.5q-32 0 -54 -21.5t-22 -52.5zM793 201q0 -29 21.5 -50.5t51.5 -21.5q29 0 50.5 21.5t21.5 50.5 q0 31 -21 52t-51 21q-31 0 -52 -21t-21 -52zM793 389q0 -31 21 -52.5t52 -21.5q29 0 50.5 21.5t21.5 52.5q0 29 -21.5 50.5t-50.5 21.5q-30 0 -51.5 -21.5t-21.5 -50.5zM793 578q0 -32 21 -53t52 -21q30 0 51 21t21 53q0 29 -21.5 50t-50.5 21q-31 0 -52 -21t-21 -50z M793 764q0 -30 21.5 -51t51.5 -21q29 0 50.5 21.5t21.5 50.5q0 31 -21.5 52.5t-50.5 21.5q-31 0 -52 -21.5t-21 -52.5zM989 201q0 -29 21.5 -50.5t52.5 -21.5q32 0 53 21t21 51q0 31 -21 52t-53 21q-31 0 -52.5 -21t-21.5 -52zM989 389q0 -31 21.5 -52.5t52.5 -21.5 q32 0 53 21.5t21 52.5q0 30 -21 51t-53 21q-31 0 -52.5 -21.5t-21.5 -50.5zM989 578q0 -32 21.5 -53t52.5 -21q32 0 53 21t21 53q0 30 -21 50.5t-53 20.5q-31 0 -52.5 -21t-21.5 -50zM989 764q0 -29 21.5 -50.5t52.5 -21.5q32 0 53 21t21 51q0 31 -21 52.5t-53 21.5 q-31 0 -52.5 -21.5t-21.5 -52.5z" />
<glyph unicode="d" horiz-adv-x="1951" d="M205 254v600q0 53 36 90t91 37h157v193h56v210h864v-210h55v-193h160q50 0 86.5 -37.5t36.5 -89.5v-600q0 -52 -36.5 -89.5t-86.5 -37.5h-125l55 -250h-1132l45 250h-135q-55 0 -91 37t-36 90zM330 758q0 -36 26 -62t62 -26q37 0 63.5 25.5t26.5 62.5q0 35 -26.5 61.5 t-63.5 26.5q-35 0 -61.5 -26.5t-26.5 -61.5zM520 -47h930l-78 395h-792zM602 829h750v478h-750v-478zM707 137h227v58h-227v-58zM1030 137h227v58h-227v-58z" />
<glyph unicode="e" horiz-adv-x="1388" d="M123 -49l184 727l389 387q15 4 40.5 9t97.5 6h8q67 0 125 -15l-338 -336l-246 -127l-53 -291q88 -90 159 -159l289 55l127 246l342 342q18 -71 18 -130v-7q-1 -62 -11 -100l-11 -40l-387 -389l-729 -184zM621 446l98 193l371 371q31 -19 55 -43q23 -23 43 -56l-371 -370 l-192 -99z" />
<glyph unicode="f" horiz-adv-x="1595" d="M66 0q-3 10 -3 39t3 78q37 19 156.5 56t228.5 68.5t116 34.5l2 74l31 8q12 116 12 134q-47 92 -57 145q-4 0 -11 1t-18.5 11t-13.5 27q-2 16 -3 48.5t-7 49.5q-4 21 8.5 39.5t26.5 13.5q-5 24 -10.5 60.5t-6.5 110.5v7q0 67 17 91q101 142 323 182q22 3 38 3q21 0 30 -5 q11 -4 3 -14l-18 -21q4 -3 11.5 -8t28 -22t38 -35.5t36 -47t28.5 -57.5q12 -47 12 -114v-19q-2 -79 -12 -111q1 -1 7.5 0.5t13.5 -7t5 -25.5q-1 -8 -2 -23t-2 -25t-2.5 -26t-3 -25.5t-4.5 -23t-6.5 -19t-8.5 -13t-10.5 -6t-13.5 2.5q0 -15 -1.5 -37.5t-12 -65.5t-27.5 -55 q-5 -41 -5 -66q0 -38 11 -40h27q11 -84 31 -107q18 -5 47.5 -12.5t107.5 -30t140 -42t118 -41.5t68 -36v-104h-1466z" />
<glyph unicode="g" horiz-adv-x="2355" d="M61 4q0 4 1.5 11.5t7.5 27.5t15.5 37.5t28 37.5t42.5 32q39 19 143 53t198.5 62.5t100.5 31.5l2 76l33 8q10 123 10 139q-47 99 -59 152q-5 0 -12 1t-19.5 12.5t-15.5 31.5q-1 16 -2 36.5t-2 35t-5 28.5q-4 23 9 42.5t28 14.5q-5 25 -11 63t-7 115v8q0 70 18 97 q108 150 338 191q22 2 37 2q24 0 35 -4q12 -3 6 -12l-23 -25q5 -3 12.5 -8.5t29 -23.5t39.5 -37.5t37.5 -50t29.5 -61.5q15 -49 15 -117q0 -10 -1 -21q-2 -81 -14 -116q1 -1 9 0.5t16 -7.5t6 -27q-10 -110 -19 -138q-13 -41 -37 -30q0 -15 -1.5 -38t-13 -67t-30.5 -57 q-4 -39 -4 -64q0 -46 12 -49h27q13 -87 33 -110q100 -41 215 -68q60 -14 144 -14h30q3 9 19.5 41.5t22.5 65.5q5 29 5 77v17q0 24 -10 52t-20 44l-11 16q0 -2 -1.5 -5t-8.5 -8t-19 1q-17 9 -31.5 29t-19.5 40q-1 17 -12 44t-18 36q-7 15 1.5 33t34.5 21q-2 3 -3.5 8.5 t-3.5 19t5 17.5h-4t-8.5 1.5t-9.5 5t-5 10t5 17.5q-3 1 -8.5 3.5t-16.5 11t-15.5 19t0.5 27.5t25 36q-2 2 -4.5 5t-7.5 11.5t-5.5 15.5t5.5 14t21 9l-7.5 10t-12.5 23t-8.5 32t12.5 32.5t42 27.5q-2 5 -5 13.5t-9.5 32.5t-9.5 46.5t-1 50t12 47.5t33 35t58 17q14 2 28 2 q25 0 49 -7q35 -9 86.5 -37t70.5 -36q5 4 13 10t30.5 21t43.5 26t46 18.5t43 4.5q84 -17 107 -87q8 -23 8 -45q0 -49 -35 -98q33 9 53 -15.5t16 -60t-30 -55.5q4 -4 8.5 -11.5t5.5 -28t-14 -38.5l5 -7.5t8 -18t5.5 -25.5t-7 -25.5t-24.5 -21.5q-10 -41 -24 -59q26 3 34 -17 q9 -17 8.5 -36t-14.5 -42q-9 -14 -15 -26.5t-10.5 -25t-6.5 -17.5q0 -1 -3.5 -12.5t-6.5 -17t-9.5 -12.5t-16 -6t-22.5 9q-47 -58 -59 -140q-3 -23 -3 -47q0 -58 21 -116l10 -19q26 -5 85 -17t94 -19t81 -17.5t79.5 -20.5t56.5 -20v-94h-1147v4h-1086z" />
<glyph unicode="h" horiz-adv-x="2041" d="M205 2v819h1118v-819h-1118zM1419 307l418 -260v729l-418 -260v-209z" />
<glyph unicode="i" horiz-adv-x="1648" d="M42 1304.5q0 27.5 19.5 50.5t53.5 23h145q51 0 74 -20.5t43 -67.5l51 -102h926q44 0 67 -23t23 -59v-383q0 -32 -22 -55.5t-54 -26.5l-827 -92q-24 -3 -38.5 -18.5t-15.5 -32.5t14.5 -31t43.5 -14h784q32 0 50 -21t18 -46t-18 -46t-50 -21h-801q-65 0 -112 33 q-46 34 -62 80q-8 23 -8 47q0 25 8 53q16 54 68 91l72 53l-254 555h-125q-34 0 -53.5 23t-19.5 50.5zM215 94q0 54 37 91.5t90 37.5q55 0 92 -37.5t37 -91.5q0 -53 -37 -90t-92 -37q-52 0 -89.5 37.5t-37.5 89.5zM481 1073l64 -139h207l-45 139h-226zM575 860l84 -182 l164 16l-53 166h-195zM780 1073l43 -139h203l-33 139h-213zM844 860l51 -158l184 19l-41 139h-194zM1067 1073l31 -139h233v139h-264zM1081 94q0 54 37.5 91.5t91.5 37.5t90.5 -37.5t36.5 -91.5q0 -53 -36.5 -90t-90.5 -37t-91.5 37t-37.5 90zM1114 860l33 -129l184 19v110 h-217z" />
<glyph unicode="j" horiz-adv-x="1572" d="M164 752q0 134 82 215.5t217 81.5q46 0 85 -9t65 -20.5t57 -39t47.5 -45t52.5 -58.5q3 -4 5 -6.5t5 -6t6 -6.5q79 91 109 117q81 70 197 74h18q135 0 217 -81.5t82 -215.5q0 -176 -156 -328l-467 -465l-467 465q-155 151 -155 328z" />
<glyph unicode="k" horiz-adv-x="1269" d="M61 0v78q73 48 342 110q6 24 21 52q16 29 24 65q8 32 7 88v13q0 24 -10.5 52t-20.5 44l-10 16q0 -2 -1.5 -5t-8.5 -8t-19 1q-17 9 -31.5 29t-19.5 40q-1 17 -12.5 44t-18.5 36q-7 15 2 33t35 21q-2 3 -3.5 8.5t-3.5 19t5 17.5h-4.5t-9 1.5t-9 5t-5 10t4.5 17.5 q-3 1 -8.5 3.5t-16 11t-15 19t0.5 27.5t25 36q-2 2 -4.5 5t-7.5 11.5t-6 15.5t5 14t21 9l-7.5 10t-12.5 23t-8 32t13 32.5t42 27.5q-2 5 -5 13.5t-9.5 32.5t-9.5 46.5t-1 50t12 47.5t33 35t58 17q14 2 27 2q26 0 49 -7q35 -10 86 -37.5t71 -35.5q5 4 13 10t30.5 21t43.5 26 q21 10 46 18q18 5 32 6q6 0 11 -1q83 -17 107 -87q7 -22 8 -45q0 -49 -35 -98q33 9 53 -15.5t16 -60t-30 -55.5q4 -4 8.5 -11.5t5.5 -28t-14 -38.5l5 -7.5t8 -18t6 -25.5t-6.5 -25.5t-24.5 -21.5q-11 -41 -25 -59q27 3 35 -17q9 -17 8.5 -36t-14.5 -42q-8 -12 -33 -69 q0 -1 -3.5 -12.5t-6.5 -17t-9 -12.5t-15.5 -6t-22.5 9q-47 -58 -59 -140q-3 -23 -4 -47q0 -58 22 -116l10 -19q26 -5 85.5 -17t93.5 -19t80 -17.5t79.5 -20.5t56.5 -20v-94h-1147z" />
<glyph unicode="l" horiz-adv-x="1636" d="M205 23v788q0 19 14 33t33 14h336q19 0 33 -14t14 -33v-53q45 29 86.5 78t68.5 96.5t48 95.5t30.5 74t10.5 33q19 80 64 124t110 44q77 0 138.5 -74t61.5 -207q0 -36 -13 -86t-34 -90h29q49 0 91 -12t78 -39t47 -71q5 -20 5 -44q0 -30 -8 -66q22 -37 24 -79q0 -4 -1 -9 q0 -38 -11 -64q-13 -30 -33 -48q16 -37 16 -70q1 -20 -5 -38q-14 -50 -56 -79q12 -38 12 -70q0 -114 -158 -140q-50 -8 -109 -8q-129 0 -300 40q-152 36 -190 66l-2 2v-94q0 -20 -14 -35t-33 -15h-336q-19 0 -33 15t-14 35zM635 248q218 -109 504 -121h8q77 0 118 39 q19 19 19 37q0 14 -12 28q-20 23 -68 33q-23 3 -23 18q1 12 17 13q86 0 113 43q8 12 8 24q0 17 -18 33q-19 17 -54 21q-13 2 -18 8.5t0 12t18 5.5q55 0 79 31q13 17 13 35q0 14 -8 28q-19 32 -69 33q-11 1 -15.5 7t0 12t15.5 6q55 0 68 40q3 10 3 19q0 27 -24 50 q-28 26 -74 26h-121q-30 0 -46.5 15.5t-16.5 37.5q0 20 43 106.5t43 131.5q0 72 -28 119t-56 47q-25 0 -40 -18t-18 -46q-12 -82 -68 -187t-136.5 -194.5t-155.5 -122.5v-370z" />
<glyph unicode="m" horiz-adv-x="1861" d="M205 76v833l424 -399zM285 0l424 432l221 -209l225 213l422 -436h-1292zM307 1018h1245l-622 -592zM1235 512l422 397v-833z" />
<glyph unicode="n" horiz-adv-x="1126" d="M123 406q0 185 131 313v272q0 127 91 218t218 91t217 -90.5t90 -218.5v-272q134 -131 134 -313q0 -120 -59.5 -221.5t-161 -160.5t-220.5 -59q-183 0 -311.5 129t-128.5 312zM227 406l21 -50h139v99h-139zM303 217l21 -49l49 -18l100 100l-70 69zM303 594l100 -100l70 69 l-100 101l-49 -19zM420 821q69 26 140.5 25.5t144.5 -25.5v170q0 59 -42 101.5t-100 42.5q-60 0 -101.5 -42.5t-41.5 -101.5v-170zM512 94l49 -20l49 20v139h-98v-139zM512 580h98v139l-49 20l-49 -20v-139zM647 250l101 -100l51 18l18 49l-100 102zM647 563l70 -69l100 100 l-18 49l-51 21zM733 356h139l21 50l-21 49h-139v-99z" />
<glyph unicode="o" horiz-adv-x="1826" d="M205 96v824q0 41 29 69.5t69 28.5h375v-148h-326v-723h1067v267h148v-318q0 -40 -28.5 -68t-68.5 -28h-1167q-40 0 -69 28t-29 68zM670 369q0 13 1 36t10.5 88.5t25.5 125t51 132.5t82 125.5t124 88.5t171 36l-56 242l543 -381l-543 -387l60 273q-9 0 -23.5 -1t-57 -8.5 t-81 -20.5t-85.5 -41.5t-81 -67t-57 -101t-23 -139.5h-61z" />
<glyph unicode="p" horiz-adv-x="2230" d="M164 870v148h897v282h553v-282h452v-148h-1902zM340 -2v801h1546v-801h-932v491h-278v-491h-336zM1200 397h240v289h-240v-289zM1513 397h240v289h-240v-289z" />
<glyph unicode="q" horiz-adv-x="1396" d="M82 858v213q0 127 90 217t217 90q128 0 218.5 -90t90.5 -217v-248q65 21 136 21q183 0 311.5 -128t128.5 -310q0 -183 -128.5 -312t-311.5 -129q-119 0 -220.5 59t-161 160.5t-59.5 221.5q0 92 36.5 175t102.5 144v346q0 59 -41.5 100t-101.5 41q-59 0 -100 -41t-41 -100 v-213h-166zM500 406l20 -50h139v99h-139zM575 217l21 -49l49 -18l100 100l-69 69zM575 594l101 -100l69 69l-100 101l-49 -19zM784 94l50 -20l49 20v139h-99v-139zM784 580h99v139l-49 20l-50 -20v-139zM920 250l100 -100l51 18l19 49l-101 102zM920 563l69 -69l101 100 l-19 49l-51 21zM1006 356h139l20 50l-20 49h-139v-99z" />
<glyph unicode="r" horiz-adv-x="1650" d="M180 -33l90 344l807 803q29 8 58 8q21 0 41 -4l-857 -856l-24 -90l98 -98l92 24l41 39l4 92l-65 66l784 784q15 -13 25 -24q33 -32 51.5 -65t21.5 -56.5t1.5 -42.5t-6.5 -29l-5 -10l-807 -807l-344 -84zM1137 1178l80 79q54 55 134 57h4q77 0 128 -52q57 -55 57 -127v-7 q-3 -76 -63 -137l-76 -76q2 4 5.5 10.5t6.5 28t-0.5 43.5t-22 55.5t-51.5 65.5q-29 29 -60.5 46t-56 20.5t-44.5 2.5t-30 -5z" />
<glyph unicode="s" horiz-adv-x="1409" d="M82 80q0 44 24 74l211 213l207 84q-108 129 -108 299q0 122 62 226t167 165t227 61q121 0 226 -61.5t167 -166.5t62 -226q0 -193 -131 -324q-135 -135 -324 -135q-168 0 -297 108l-83 -204l-213 -213q-36 -25 -74 -25q-50 0 -86.5 37.5t-36.5 87.5zM592 748 q0 -119 82 -201q85 -82 198 -82q114 0 196.5 83t82.5 200q0 114 -83 196t-196 82q-115 0 -197.5 -82.5t-82.5 -195.5z" />
<glyph unicode="t" horiz-adv-x="1585" d="M72 414q6 -2 16 -4t40 -7.5t58 -8.5t64 -3t63 6q84 17 151 81.5t93 178.5q9 41 32 77t49.5 58.5t51.5 39t42 23.5l16 7q0 79 29.5 139t75.5 92t92.5 47t90.5 15q49 0 88 -13.5t60.5 -32.5t35.5 -37.5t18 -31.5l5 -14h277v-35l-217 -139q2 -15 2 -29q-1 -21 -5 -41 q-8 -33 -21.5 -54t-28 -36.5t-25.5 -22.5l-11 -7q3 -9 8 -26q4 -16 10 -65q3 -27 4 -53q0 -22 -2 -44q-4 -48 -29 -110.5t-70 -115.5q-51 -59 -109 -94.5t-102 -46.5q-39 -10 -82 -10q-6 1 -12 1q-48 2 -70 7t-45 12q-4 2 -6 2q-15 4 -22.5 0t-8.5 -9v-6q14 -64 14 -108 q0 -37 -10 -59q-22 -48 -90 -54h-6q-22 0 -38 12q-18 14 -24.5 35.5t-9 43.5t-1.5 38l1 15q-92 -81 -148 -81q-17 0 -30 7q-26 14 -26 46v9q0 4 1 8q9 36 39.5 80t57.5 70l26 27q-61 0 -113.5 12t-88.5 31.5t-65 43t-46 47.5t-29 43.5t-16 31.5zM985 938q0 -34 24 -58 t58 -24t58 24t24 58t-24 58t-58 24t-58 -24t-24 -58z" />
<glyph unicode="u" horiz-adv-x="1300" d="M123 86l188 186l-118 119h344v-344l-119 119l-187 -189zM123 926l108 106l187 -190l119 121v-345h-344l118 119zM764 47v344h344l-119 -119l189 -186l-107 -109l-188 189zM764 618v345l119 -119l188 188l107 -106l-189 -189l119 -119h-344z" />
<glyph unicode="v" horiz-adv-x="1423" d="M205 -2v344l119 -119l186 189l108 -109l-188 -186l119 -119h-344zM205 668v344h344l-119 -119l188 -188l-108 -107l-186 190zM805 303l106 109l189 -189l119 119v-344h-345l119 119zM805 705l188 188l-119 119h345v-344l-119 118l-189 -188z" />
<glyph unicode="w" horiz-adv-x="1574" d="M123 625q0 135 52.5 257.5t141.5 211t212 140.5t259 52q137 0 260 -52t211.5 -140.5t140.5 -211t52 -257.5q0 -137 -52 -260.5t-140.5 -212t-211.5 -141t-260 -52.5q-136 0 -259 52.5t-212 141t-141.5 212t-52.5 260.5zM246 625q0 -53 4 -76q56 -64 217 -94 q-12 77 -12 163q0 55 6 113q-131 25 -193 51q-22 -77 -22 -157zM276 440q51 -124 130 -198q65 -70 174 -117q-68 95 -99 248q-139 30 -205 67zM299 854q5 -5 12 -8t21.5 -7.5t29 -8t45.5 -11.5l62 -16q36 204 123 321q-47 -22 -69.5 -33.5t-56.5 -35t-60 -51.5 q-64 -58 -107 -150zM528 618q0 -89 13 -178q99 -17 207 -20v289q-125 3 -218 14q0 -19 -1 -53t-1 -52zM541 793q119 -10 207 -13v381h-5q-69 -28 -123 -127t-79 -241zM559 360q18 -79 55 -143q25 -59 60 -96t74 -37v264q-99 3 -189 12zM825 84q110 0 191 276 q-94 -9 -191 -12v-264zM825 420q104 3 207 18q12 66 12 180q0 68 -2 103q-106 -9 -217 -12v-289zM825 780q85 2 209 13q-20 111 -61.5 202t-93.5 138q-42 28 -54 28v-381zM983 1126q90 -118 121 -325q137 25 172 51q-43 95 -120.5 167.5t-172.5 106.5zM993 125 q112 48 176 117q79 74 123 190q-74 -35 -198 -61q-37 -157 -101 -246zM1108 453q63 10 105 23.5t65 26.5t34.5 34.5t14 38.5t2.5 49q0 81 -24 155q-97 -40 -191 -49q4 -39 4 -113q0 -80 -10 -165z" />
<glyph unicode="x" horiz-adv-x="1574" d="M123 625q0 135 52.5 257.5t141.5 211t212 140.5t259 52q137 0 260 -52t211.5 -140.5t140.5 -211t52 -257.5q0 -137 -52 -260.5t-140.5 -212t-211.5 -141t-260 -52.5q-136 0 -259 52.5t-212 141t-141.5 212t-52.5 260.5zM444 420l138 -139l206 206l203 -204l139 137 l-204 205l204 204l-139 138l-203 -205l-206 207l-138 -140l207 -204z" />
<glyph unicode="y" horiz-adv-x="1456" d="M98 625q-16 63 -16 127t16 128q34 127 127 222q96 95 223 128q64 17 127.5 17t126.5 -17q128 -33 224 -128q88 -88 120 -213q18 -68 18 -136q0 -55 -12 -111q-27 -121 -104 -210l189 -65l211 -213q25 -31 25 -71q0 -5 -1 -11q-3 -46 -37 -80q-32 -32 -77 -35h-9 q-40 0 -73 23l-213 213l-66 184q-90 -76 -211 -102q-54 -11 -108 -11q-69 0 -139 18q-125 33 -214 121q-93 95 -127 222zM211 753.5q0 -150.5 106 -257.5q107 -106 257.5 -106t256.5 106q107 107 107 257.5t-107 256.5q-106 107 -256.5 107t-257.5 -107 q-106 -106 -106 -256.5zM356 705v104h164v166h111v-166h162v-104h-162v-164h-111v164h-164z" />
<glyph unicode="z" horiz-adv-x="1456" d="M98 625q-17 64 -16.5 127.5t16.5 127.5q34 128 129 222t222 128q64 17 127 17q64 -1 128 -17q128 -34 222 -128q88 -88 120 -213q18 -69 18 -137q0 -56 -12 -110q-26 -122 -102 -210l187 -65l211 -213q25 -31 25 -71q-1 -5 -1 -11q-4 -46 -37 -80q-32 -32 -77 -35h-9 q-40 0 -73 23l-213 213l-66 184q-89 -76 -211 -102q-54 -11 -108 -11q-68 0 -138 18q-124 33 -213 121q-95 95 -129 222zM211 753q0 -151 106 -257q107 -106 258.5 -106t255.5 106q107 106 107 257t-107 257q-104 107 -255.5 107t-258.5 -107q-106 -106 -106 -257zM356 680 v156h437v-156h-437z" />
<glyph unicode="{" horiz-adv-x="1576" d="M123 621q0 136 52.5 259t141.5 212t212 141.5t259 52.5q181 0 334 -88.5t242.5 -242t89.5 -334.5q0 -180 -89.5 -333.5t-243 -243t-333.5 -89.5q-181 0 -334.5 89.5t-242 242.5t-88.5 334zM268 623q0 -141 69.5 -261t189.5 -190t261 -70t260.5 70t189 190t69.5 261 t-69.5 260.5t-189 188.5t-260.5 69q-106 0 -202 -41t-166 -110t-111 -165t-41 -202zM356 625q0 15 12 27t27 12t27 -12t12 -27t-12 -27t-27 -12t-27 12t-12 27zM468 875q-6 -27 19 -54l236 -256q18 -24 53 -24h209q32 0 51.5 23t20.5 50.5t-18 50.5t-54 23h-178l-213 234 q-23 23 -53 21.5t-48.5 -21.5t-24.5 -47zM479 338q0 15 12 27t27 12t27 -12t12 -27t-12 -27t-27 -12t-27 12t-12 27zM745 231q0 15 12 27t27 12t27 -12t12 -27t-12 -26.5t-27 -11.5t-27 11.5t-12 26.5zM748 1012q0 15 11.5 27t26.5 12t27 -12t12 -27t-12 -27t-27 -12 t-26.5 12t-11.5 27zM1020 905q0 15 12 27t27 12t27 -12t12 -27t-12 -27t-27 -12t-27 12t-12 27zM1032 350q0 15 12 27t27 12t27 -12t12 -27t-12 -27t-27 -12t-27 12t-12 27zM1141 625q0 15 12 27t27 12t27 -12t12 -27t-12 -27t-27 -12t-27 12t-12 27z" />
<glyph unicode="|" horiz-adv-x="485" d="M205 -508v2050h76v-2050h-76z" />
<glyph unicode="}" horiz-adv-x="1576" d="M123 621q0 136 52.5 259t141.5 212t212 141.5t259 52.5q181 0 334 -88.5t242.5 -242t89.5 -334.5q0 -180 -89.5 -333.5t-243 -243t-333.5 -89.5q-181 0 -334.5 89.5t-242 242.5t-88.5 334zM268 623q0 -141 69.5 -261t189.5 -190t261 -70t260.5 70t189 190t69.5 261 t-69.5 260.5t-189 188.5t-260.5 69q-106 0 -202 -41t-166 -110t-111 -165t-41 -202zM488.5 854.5q-5.5 -26.5 19.5 -53.5l215 -236q18 -24 53 -24h189q32 0 51.5 23t20.5 50.5t-18 50.5t-54 23h-158l-193 213q-23 23 -53 21.5t-48.5 -21.5t-24 -46.5z" />
<glyph unicode="&#xad;" d="M113 123l440 774l444 -774h-884z" />
<glyph unicode="&#xc4;" horiz-adv-x="1024" />
<glyph unicode="&#xd7;" horiz-adv-x="1333" d="M166 221l299 299l-297 293l199 203l297 -297l297 297l200 -203l-297 -293l299 -301l-202 -199l-297 299l-297 -299z" />
<glyph unicode="&#xec;" horiz-adv-x="1525" />
<glyph unicode="&#x2c6;" horiz-adv-x="1024" />
<glyph unicode="&#x2000;" horiz-adv-x="816" />
<glyph unicode="&#x2001;" horiz-adv-x="1632" />
<glyph unicode="&#x2002;" horiz-adv-x="816" />
<glyph unicode="&#x2003;" horiz-adv-x="1632" />
<glyph unicode="&#x2004;" horiz-adv-x="544" />
<glyph unicode="&#x2005;" horiz-adv-x="408" />
<glyph unicode="&#x2006;" horiz-adv-x="272" />
<glyph unicode="&#x2007;" horiz-adv-x="272" />
<glyph unicode="&#x2008;" horiz-adv-x="204" />
<glyph unicode="&#x2009;" horiz-adv-x="326" />
<glyph unicode="&#x200a;" horiz-adv-x="90" />
<glyph unicode="&#x2010;" d="M113 123l440 774l444 -774h-884z" />
<glyph unicode="&#x2011;" d="M113 123l440 774l444 -774h-884z" />
<glyph unicode="&#x2012;" d="M113 123l440 774l444 -774h-884z" />
<glyph unicode="&#x2013;" horiz-adv-x="1262" d="M113 123l510 774l514 -774h-1024z" />
<glyph unicode="&#x2014;" horiz-adv-x="2286" d="M113 123l1019 774l1029 -774h-2048z" />
<glyph unicode="&#x2018;" horiz-adv-x="1024" />
<glyph unicode="&#x202f;" horiz-adv-x="326" />
<glyph unicode="&#x205f;" horiz-adv-x="408" />
<glyph unicode="&#xe000;" horiz-adv-x="1290" d="M0 0v1290h1290v-1290h-1290z" />
</font>
</defs>
</svg>
